<svg width="38" height="30" viewBox="0 0 38 30" fill="none" xmlns="http://www.w3.org/2000/svg">
<path d="M37.0818 17.2014C37.6698 16.6127 38 15.8147 38 14.9828C38 14.1508 37.6698 13.3528 37.0818 12.7642L25.2438 0.919837C24.6548 0.330876 23.856 -8.77621e-09 23.0231 0C22.1902 8.77621e-09 21.3914 0.330876 20.8024 0.919837C20.2135 1.5088 19.8826 2.3076 19.8826 3.14052C19.8826 3.97344 20.2135 4.77224 20.8024 5.3612L27.2824 11.8432L3.13952 11.8432C2.30687 11.8432 1.50833 12.174 0.919553 12.7628C0.330779 13.3516 1.14972e-05 14.1501 1.14972e-05 14.9828C1.14972e-05 15.8154 0.330779 16.614 0.919553 17.2027C1.50833 17.7915 2.30687 18.1223 3.13952 18.1223H27.2824L20.8024 24.6022C20.5108 24.8939 20.2795 25.2401 20.1216 25.6211C19.9638 26.0021 19.8826 26.4105 19.8826 26.8229C19.8826 27.2353 19.9638 27.6437 20.1216 28.0247C20.2795 28.4058 20.5108 28.752 20.8024 29.0436C21.094 29.3352 21.4403 29.5665 21.8213 29.7244C22.2023 29.8822 22.6107 29.9634 23.0231 29.9634C23.4355 29.9634 23.8439 29.8822 24.2249 29.7244C24.606 29.5665 24.9522 29.3352 25.2438 29.0436L37.0818 17.2014Z" fill="#1D2B53"/>
</svg>
