<svg width="76" height="76" viewBox="0 0 76 76" fill="none" xmlns="http://www.w3.org/2000/svg">
<g clip-path="url(#clip0_4_26)">
<path fill-rule="evenodd" clip-rule="evenodd" d="M40.7678 15.2928C42.6783 13.4956 44.9924 12.1033 47.392 12.4679C48.6705 12.6603 49.7211 13.3234 50.517 14.2508C51.2419 15.0942 51.7596 16.1501 52.1218 17.294C52.4294 18.2534 52.6457 19.3284 52.7818 20.4867C52.9873 22.4176 53.0195 24.363 52.8779 26.2997C52.8643 26.5134 52.8145 26.7232 52.7309 26.9202C53.2246 26.9316 53.7102 26.9509 54.1852 26.9787L54.1908 26.9796C54.6755 27.0091 55.1596 27.0465 55.6431 27.0917C56.5332 27.1764 57.3801 27.2931 58.1801 27.4376C58.9999 27.5865 59.7815 27.7658 60.511 27.9824C63.0251 28.725 65.3927 30.0216 66.2922 32.2763C66.7708 33.4795 66.725 34.7179 66.3262 35.8774C65.9625 36.928 65.3114 37.906 64.5093 38.7983C63.7719 39.6002 62.9597 40.3299 62.0838 40.9776C60.676 42.0362 58.9937 43.0473 57.1128 43.9901C56.6626 44.2156 56.1413 44.253 55.6634 44.0941C55.1856 43.9352 54.7905 43.593 54.565 43.1427C54.3395 42.6925 54.3021 42.1711 54.461 41.6933C54.6199 41.2155 54.9621 40.8204 55.4124 40.5949C56.5815 40.0166 57.7139 39.3669 58.8032 38.6493L58.8138 38.6408C60.0566 37.8108 61.0154 37.0051 61.6872 36.2566C62.2695 35.6125 62.5903 35.0654 62.7363 34.6386C62.8848 34.211 62.8582 33.9199 62.7633 33.6816C62.5407 33.1252 61.6771 32.2876 59.4336 31.623C58.7988 31.4385 58.1544 31.2886 57.5034 31.174L53.9437 30.7685C49.2138 30.4948 43.163 31.0381 36.7778 32.5383C35.9844 32.723 35.2076 32.9185 34.445 33.1255C33.8154 34.7568 33.2436 36.4098 32.7309 38.0814C31.8094 41.049 31.0949 44.077 30.5923 47.1434C31.0508 47.2478 31.4542 47.5186 31.7244 47.9034C31.9946 48.2881 32.1125 48.7594 32.0551 49.2261C31.9978 49.6927 31.7693 50.1215 31.4139 50.4294C31.0585 50.7372 30.6016 50.9022 30.1315 50.8925C29.9995 52.4298 29.9723 53.9742 30.0499 55.5152L30.0501 55.5416C30.1761 57.6171 30.5408 59.163 31.0316 60.1663C31.2242 60.5571 31.4153 60.8319 31.5969 61.0247C31.8724 61.3156 32.1289 61.4164 32.3323 61.4488L32.3435 61.4507C32.4867 61.4712 32.632 61.4708 32.7751 61.4495C33.0875 61.4058 33.489 61.2735 33.9906 60.9936C34.8927 60.4838 35.9546 59.5747 37.1123 58.2305C37.9014 57.3105 38.6294 56.3397 39.2916 55.3245L41.4201 52.1349C41.7065 51.733 42.1381 51.4583 42.6235 51.3692C43.1088 51.2801 43.6099 51.3835 44.0203 51.6574C44.4308 51.9314 44.7184 52.3545 44.8222 52.8369C44.9261 53.3194 44.838 53.8233 44.5766 54.2419L42.4522 57.4276C41.9475 58.1854 41.4374 58.8998 40.9219 59.5629C40.6139 59.963 40.3023 60.343 39.9886 60.7077C38.6699 62.2422 37.2762 63.5005 35.8523 64.3018C35.0491 64.7545 34.187 65.0851 33.298 65.2093C32.7928 65.2809 32.28 65.2791 31.7753 65.2038L31.7282 65.1972C29.6936 64.8733 28.3497 63.4001 27.5438 61.6702C26.7448 59.9541 26.3432 57.7414 26.2359 55.2812C26.1746 53.8851 26.2073 52.3646 26.3365 50.7453L24.9758 50.6897C24.1012 50.6405 23.2286 50.5598 22.3598 50.4478C21.8722 50.3836 21.3864 50.3069 20.9028 50.2179C18.9138 49.8534 17.1214 49.2849 15.7132 48.4596C14.919 48.0117 14.2158 47.4186 13.6403 46.7113C13.3227 46.3112 13.0647 45.8671 12.8744 45.3931L12.8585 45.3503C12.1151 43.4288 12.706 41.5288 13.7934 39.9573C14.8724 38.4016 16.5787 36.9379 18.649 35.6053C21.9369 33.4902 26.421 31.5241 31.619 29.9808C33.1588 26.2845 34.9033 22.9674 36.7135 20.2473L36.712 20.2424C36.9831 19.8387 37.2605 19.4392 37.544 19.0442C38.0671 18.3204 38.5948 17.6456 39.1221 17.0292C39.6649 16.3948 40.213 15.8117 40.7678 15.2928ZM36.3157 28.7438C40.8335 27.7079 45.2552 27.1152 49.2475 26.9495C49.1216 26.6684 49.0664 26.3607 49.0866 26.0533C49.1792 24.615 49.1873 23.3061 49.1162 22.1437L49.1172 22.1301C49.026 20.6374 48.8115 19.4054 48.5062 18.4453C48.2422 17.6182 47.933 17.0647 47.6369 16.7245C47.3448 16.3804 47.0785 16.2562 46.8231 16.2187C46.231 16.1291 45.0727 16.4533 43.3698 18.0564C42.8901 18.5104 42.4353 18.99 42.0075 19.4931L39.8601 22.3653C38.526 24.403 37.3414 26.5348 36.3157 28.7438ZM29.8955 34.521C26.1914 35.8057 23.054 37.2859 20.7053 38.7975C20.5927 38.8693 20.4812 38.9427 20.3707 39.0177L20.3504 39.0293C18.6203 40.1851 17.4703 41.2805 16.8505 42.2143C16.6539 42.4956 16.5004 42.8049 16.3953 43.1316C16.3004 43.4062 16.3014 43.7048 16.3979 43.9788L16.4016 43.9909C16.457 44.1247 16.5315 44.2498 16.6227 44.3623C16.8183 44.6091 17.1365 44.8921 17.629 45.1821C18.5225 45.7057 19.8441 46.1656 21.5906 46.4834C22.7842 46.6931 23.989 46.8323 25.1989 46.9003L26.7764 46.963C27.3075 43.5797 28.0843 40.2395 29.1007 36.969C29.3555 36.1403 29.6196 35.3245 29.8955 34.521Z" fill="#FAEF5D"/>
<path d="M39.1396 43.6913C38.4244 41.5015 38.0692 40.4058 38.6365 39.7903C39.2062 39.174 40.3268 39.4471 42.5673 39.9908L43.1456 40.1297C43.7827 40.2875 44.1005 40.364 44.4067 40.3089C44.7161 40.2555 44.9761 40.0769 45.5003 39.7159L45.9772 39.3907C47.8194 38.126 48.7393 37.4941 49.5279 37.8673C50.3156 38.2461 50.4473 39.3818 50.7125 41.6501L50.7831 42.2377C50.8582 42.8822 50.8976 43.2065 51.055 43.4837C51.2148 43.7601 51.4787 43.9619 52.0049 44.3607L52.4839 44.7265C54.3382 46.137 55.2638 46.8414 55.1816 47.6883C55.0994 48.5352 54.0589 48.966 51.9852 49.8254L51.4472 50.0476C50.86 50.2904 50.5643 50.4138 50.3537 50.6406C50.1447 50.8643 50.0453 51.168 49.8489 51.7747L49.6674 52.3264C48.9722 54.4628 48.6242 55.5298 47.7851 55.6783C46.9461 55.8268 46.1706 54.9567 44.6227 53.2181L44.2232 52.7668C43.7815 52.2729 43.5618 52.0256 43.2726 51.8873C42.984 51.7514 42.6617 51.7372 42.0122 51.7105L41.4218 51.6866C39.1371 51.5991 37.9947 51.5553 37.5587 50.7974C37.1226 50.0394 37.6821 49.0739 38.8029 47.1396L39.0907 46.6398C39.4083 46.091 39.5688 45.8134 39.5971 45.5026C39.6285 45.1934 39.5264 44.8806 39.3235 44.2597L39.1396 43.6913Z" fill="#FAEF5D"/>
</g>
<defs>
<clipPath id="clip0_4_26">
<rect width="60" height="60" fill="white" transform="translate(0 17.9688) scale(1.01249) rotate(-17.2047)"/>
</clipPath>
</defs>
</svg>
